<svg xmlns="http://www.w3.org/2000/svg" width="116" height="69" viewBox="0 0 116 69" fill="none">
  <g filter="url(#filter0_d_6312_21442)">
    <path d="M101.857 17.6038C101.129 17.429 100.411 17.4907 99.6928 17.4907C96.4256 17.4804 93.1479 17.4907 89.8807 17.4907C89.6622 17.4907 89.454 17.4701 89.2459 17.4907C89.0482 17.5113 88.8609 17.573 88.6632 17.6141V18.9406C88.6632 19.9792 88.6632 21.0178 88.6632 22.0564C88.6632 22.221 88.632 22.3444 88.4447 22.3752C87.6227 21.5937 86.8631 20.771 85.9995 20.0512C85.781 19.8661 85.5937 19.6399 85.3856 19.4548C85.1775 19.2697 85.0318 19.0126 84.7509 18.9098C84.678 18.6013 84.3555 18.5396 84.1786 18.3442C84.0433 18.2002 83.8664 18.0871 83.7728 17.9226C83.6687 17.7581 83.4814 17.7066 83.3774 17.5524C83.3358 17.4804 83.2837 17.4084 83.2317 17.3262H54.9294C54.6901 17.4907 54.6485 17.7169 54.6068 17.9432C54.586 18.0666 54.6277 18.2105 54.482 18.3031C54.4508 18.3236 54.4196 18.3751 54.4196 18.4059C54.4196 18.7967 54.2531 19.1463 54.149 19.5165C54.045 19.8661 53.9721 20.226 53.8681 20.5757C53.7536 20.9356 53.6288 21.2955 53.5975 21.6862C53.5871 21.7376 53.5767 21.8199 53.5455 21.8405C53.3894 21.9433 53.4206 22.0976 53.4206 22.2415V28.3189C53.3478 28.5554 53.2021 28.5142 53.0669 28.5142C52.2761 28.5142 51.4853 28.5142 50.6945 28.5142C50.3407 28.5142 50.3199 28.4937 50.3199 28.1338C50.3199 28.0721 50.3199 28.0104 50.3199 27.9487C50.3199 26.0669 50.3199 24.185 50.3199 22.3032C50.3199 22.149 50.2991 21.9947 50.2366 21.8405C50.0806 21.4497 49.9557 21.0487 49.8725 20.6373C49.7476 20.0409 49.5395 19.4754 49.4042 18.8892C49.3522 18.6527 49.2585 18.4368 49.2065 18.2002C49.1337 17.9123 49.0817 17.5935 48.9152 17.3262H20.5921L20.0926 17.8198C19.9469 17.974 19.8013 18.1283 19.6348 18.2619C19.4683 18.4059 19.2186 18.5087 19.1457 18.6835C19.0417 18.9098 18.8128 18.9509 18.6775 19.1154C18.5526 19.2697 18.3966 19.3931 18.2613 19.5371C18.1052 19.6913 17.9595 19.8353 17.8139 19.9792C17.6786 20.1129 17.5329 20.2569 17.3977 20.3906C17.2416 20.5345 17.1167 20.7196 16.9398 20.8327C16.7733 20.9356 16.7005 21.1001 16.5652 21.2235C16.3988 21.3675 16.2219 21.4909 16.0554 21.6451C15.9929 21.6965 15.9721 21.7993 15.9097 21.8405C15.4519 22.1284 15.1917 22.6323 14.7131 22.8894C14.5362 23.2493 14.2136 23.4549 13.8911 23.6812V27.2391C13.8911 28.2777 13.8703 29.3163 13.8911 30.3549C13.9119 31.3833 13.8599 32.4013 13.9535 33.4296C14.0472 34.4271 13.9743 35.4451 13.9743 36.4528C13.9743 36.7202 14.0576 36.967 14.2032 37.1727C14.453 37.5326 14.7547 37.8514 15.0357 38.1907C15.2438 38.4375 15.4831 38.6637 15.6808 38.9208C16.1074 39.4864 16.534 40.052 17.0023 40.5867C17.1583 40.7615 17.3144 40.9363 17.4497 41.1317C17.689 41.4916 17.9804 41.8104 18.2405 42.16C18.4902 42.4993 18.792 42.8078 19.0313 43.1472C19.1249 43.2809 19.2706 43.3528 19.3226 43.5174H30.0504C30.9661 43.5174 31.8818 43.5277 32.787 43.5174C33.6715 43.4968 34.5663 43.6099 35.4404 43.4351C37.1885 43.4351 38.9365 43.4454 40.6846 43.4351C42.4223 43.4248 44.16 43.3117 45.8976 43.3426C47.3544 43.3631 48.8111 43.3426 50.3095 43.3426C50.5488 42.9415 50.7881 42.5302 51.0482 42.1189C51.298 41.7281 51.5685 41.3476 51.7974 40.9363C51.8599 40.8232 51.9743 40.7923 52.0576 40.8129C52.6507 41.6767 53.2229 42.5096 53.7952 43.3323C53.8681 43.3323 53.9097 43.3426 53.9513 43.3426H56.8752C57.8533 43.3426 58.821 43.3323 59.7991 43.3426C60.7564 43.3631 61.724 43.2911 62.6813 43.4145C63.2536 43.4865 63.8363 43.4248 64.419 43.4248H66.1047C66.6873 43.4248 67.2596 43.4557 67.8423 43.4145C68.4146 43.3837 68.9765 43.5174 69.5384 43.5174C74.4081 43.5174 79.2777 43.5174 84.1474 43.5174H84.5324C84.678 43.3014 84.7925 43.106 84.9278 42.9312C85.1671 42.6227 85.4168 42.3142 85.6665 42.016C85.781 41.8721 85.8954 41.7281 86.0203 41.5841C86.1244 41.4505 86.2388 41.3168 86.3325 41.1831C86.4365 41.0186 86.5822 40.9055 86.6967 40.7512C86.9776 40.381 87.2898 40.0314 87.5915 39.6715C87.7372 39.5069 87.8725 39.3321 88.0077 39.1676C88.0493 39.1162 88.0702 39.0339 88.1118 38.9825C88.1638 38.9105 88.2366 38.8488 88.3095 38.7871C88.3615 38.7357 88.4135 38.674 88.476 38.6329C88.5384 38.5815 88.5592 38.4889 88.6841 38.4889V38.6843C88.6841 39.9286 88.6841 41.1831 88.6841 42.4274C88.6841 42.5508 88.6841 42.705 88.7465 42.8078C88.8505 42.9621 88.6424 43.0238 88.6737 43.1677C88.7153 43.3426 88.7569 43.4248 88.9442 43.4351C89.0378 43.4351 89.1315 43.4351 89.2147 43.4351H101.92V18.4779C101.92 18.3545 101.868 18.2002 101.93 18.118C102.065 17.902 101.94 17.7581 101.857 17.6038ZM50.1014 38.2524C50.0702 38.3244 50.0285 38.3861 49.9973 38.4581C49.6852 38.9928 49.3314 39.5069 48.9776 40.0725C48.1868 40.0725 47.344 40.0005 46.522 40.0931C45.3774 40.2062 44.2328 40.1445 43.0882 40.1651C41.9437 40.1856 40.8095 40.1651 39.6649 40.1651H22.0384C21.8511 39.9183 21.6638 39.6612 21.4661 39.4144C21.2476 39.1573 21.0083 38.9105 20.8106 38.6432C20.4256 38.1496 20.0406 37.656 19.6244 37.183C19.4683 37.0081 19.3226 36.823 19.1665 36.6585C19.0209 36.494 18.8856 36.3192 18.7399 36.1546C18.6151 36.0107 18.5318 35.8461 18.5526 35.6405C18.563 35.5376 18.5526 35.4348 18.5526 35.3217C18.6255 34.026 18.407 32.7303 18.459 31.4347C18.2821 30.7765 18.3862 30.1081 18.3758 29.4397C18.3549 28.761 18.3862 28.0824 18.3653 27.4037C18.3549 27.0849 18.2925 26.7661 18.2821 26.4473C18.2717 26.1183 18.2717 25.7892 18.2821 25.4499C18.2821 25.3059 18.2197 25.1619 18.3549 25.0283C18.4486 24.946 18.4798 24.7917 18.5839 24.73C18.9272 24.4935 19.1874 24.1645 19.5099 23.9074C19.7596 23.712 19.9886 23.5064 20.2071 23.2904C20.4152 23.0847 20.6545 22.9099 20.8626 22.7043C21.0187 22.55 21.206 22.4163 21.3621 22.2518C21.5181 22.077 21.6534 21.8713 21.9031 21.7993C22.0176 21.4909 22.3714 21.4189 22.5483 21.1721C22.6939 20.9664 22.9333 20.9253 23.1622 20.915C23.5159 20.9047 23.8593 20.915 24.2131 20.915H34.2021C35.1906 20.7402 36.1791 20.843 37.178 20.8327C38.1665 20.8122 39.155 20.8327 40.1435 20.8327H46.2098C46.6364 20.8327 46.6364 20.8327 46.6676 21.2749C46.6884 21.4703 46.7197 21.6862 46.7821 21.861C46.7925 21.9022 46.8029 21.933 46.8133 21.9742H46.6989V32.1648H50.1014V38.2524ZM85.4064 26.18C85.3648 26.2622 85.3752 26.3754 85.3752 26.4782C85.3752 27.198 85.3752 27.9178 85.3648 28.6479C85.3648 28.7508 85.3128 28.8639 85.2815 28.9461H76.4267V32.0311C76.4891 32.0002 76.5515 31.9591 76.614 31.9385C76.6972 31.918 76.7909 31.9385 76.8845 31.9385H84.8133C84.8861 31.9385 84.9694 31.9385 85.0422 31.9385C85.1983 31.9488 85.2711 32.0208 85.2815 32.1853C85.2919 32.2779 85.2815 32.3704 85.2815 32.4527V34.715C85.2815 34.9207 85.2919 35.1366 85.2815 35.3423C85.2607 35.5376 85.2087 35.733 85.1567 35.9695C84.7509 36.4631 84.2826 36.967 83.8664 37.5017C83.5126 37.9645 83.1381 38.4066 82.7323 38.8385C82.3993 39.1985 82.1183 39.6098 81.8062 39.9903C81.7438 40.0725 81.6293 40.1239 81.5252 40.1445C81.4212 40.1753 81.3171 40.1548 81.2027 40.1548H75.178C73.9606 40.3296 72.7432 40.2268 71.5154 40.237C70.2876 40.2576 69.0493 40.237 67.8215 40.237C66.5937 40.237 65.3555 40.1753 64.1277 40.2576C63.16 40.3296 62.2027 40.309 61.2454 40.3193C60.2777 40.3399 59.2996 40.3193 58.3215 40.3193H55.3664C55.1167 40.0417 54.867 39.7435 54.6068 39.4452C54.6277 39.2499 54.3779 39.3527 54.3363 39.1985C54.3051 39.0956 54.2219 39.0031 54.149 38.9105C54.045 38.7666 53.9409 38.6226 53.8265 38.4992C53.7016 38.3655 53.6288 38.2215 53.6079 38.057V32.1339H57.0105V21.9433H56.9897C56.9897 21.8096 57.0001 21.6759 57.0521 21.532C57.1353 21.3469 57.0209 21.1001 57.2498 20.8944H57.5932C61.3703 20.8944 65.1578 20.8944 68.9349 20.8944C71.5882 20.8944 74.252 20.8944 76.9053 20.8944C77.9979 20.8944 79.0904 20.8944 80.183 20.8944C80.4327 20.8944 80.6824 20.9356 80.9217 20.987C81.0986 21.0178 81.1611 21.2338 81.3379 21.2852C81.3796 21.2955 81.4004 21.3469 81.4316 21.3777C81.9727 21.8919 82.5137 22.4163 83.0756 22.8996C83.4294 23.1979 83.7207 23.5783 84.1474 23.7943C84.3034 24.1233 84.6884 24.2262 84.8861 24.5244C84.9694 24.6478 85.1151 24.6683 85.1983 24.7917C85.344 24.9974 85.5105 25.1825 85.4688 25.4499C85.4272 25.7172 85.5313 25.9537 85.4064 26.18ZM96.5088 37.7588C96.5088 38.0262 96.4568 38.0776 96.2071 38.0776C95.5307 38.0776 94.844 38.0776 94.1468 38.0776V33.0183C94.844 33.0183 95.5203 33.0183 96.2071 33.0183C96.4568 33.0183 96.5088 33.08 96.5088 33.337C96.5088 34.6739 96.5088 36.0107 96.5088 37.3475C96.5088 37.4914 96.5088 37.6251 96.5088 37.7588ZM96.5088 27.5785C96.5088 27.8253 96.436 27.9281 96.1862 27.8664C95.5619 27.7224 94.9376 27.815 94.3029 27.7841C94.1156 27.7739 94.0428 27.7122 94.0428 27.5168C94.0428 26.3445 94.0324 25.1722 94.0428 23.9999C94.0428 23.8046 94.1468 23.6195 94.1364 23.4035C94.1156 23.1979 94.1364 22.9819 94.1364 22.7351H96.3007C96.3527 22.7968 96.4152 22.8791 96.5192 23.0025C96.5088 24.4935 96.5088 26.036 96.5088 27.5785Z" fill="#9CFA4A" />
    <path d="M61.91 38.8088C60.8799 38.8088 59.8914 38.8088 58.9029 38.8088C58.83 38.8088 58.7468 38.8088 58.674 38.8088C58.5283 38.8088 58.4555 38.7265 58.4451 38.5928C58.4346 38.49 58.4451 38.3871 58.4451 38.274C58.4451 33.1119 58.4451 27.9497 58.4451 22.7876C58.4451 22.7156 58.4451 22.6333 58.4451 22.5614C58.4555 22.3351 58.5075 22.2837 58.7364 22.2734C58.7988 22.2734 58.8613 22.2734 58.9237 22.2734C61.9828 22.2734 65.042 22.2734 68.0907 22.2734C68.5798 22.2734 68.5798 22.3043 68.5798 22.7773C68.5694 25.7594 68.5798 28.7313 68.5798 31.7134C68.5798 31.8059 68.5798 31.8985 68.5798 31.9807C68.5798 32.1247 68.4965 32.1967 68.3613 32.207C68.2572 32.2173 68.1532 32.207 68.0387 32.207C66.1658 32.207 64.2928 32.207 62.4303 32.207C62.3262 32.207 62.2118 32.1761 62.1181 32.2172C62.0349 32.2481 61.9516 32.3304 61.9308 32.4126C61.8996 32.5052 61.9204 32.6183 61.9204 32.7211C61.9204 34.6441 61.9204 36.5773 61.9204 38.5003C61.91 38.5928 61.91 38.6854 61.91 38.8088ZM62.0765 25.7183C61.8996 25.8725 61.91 26.0679 61.91 26.253C61.91 26.8803 61.91 27.5178 61.91 28.1451C61.91 28.3405 61.9204 28.5153 62.0349 28.6798C63.0546 28.6798 64.0639 28.6798 65.094 28.6798C65.094 27.7544 65.094 26.8392 65.094 25.9548C65.0108 25.8623 64.9483 25.78 64.8859 25.7183C63.9182 25.7183 62.9818 25.7183 62.0765 25.7183Z" fill="#9CFA4A" />
    <path d="M38.8005 39.0145H35.2939V22.0781H43.9095V23.7646H45.616V30.5926H43.9095V32.1865H45.616V39.0248H42.1094V32.279H38.8005V39.0145ZM38.8005 25.5436V28.8136H42.1094V25.5436H38.8005ZM43.9095 22.0781H45.616V23.7646H43.9095V22.0781Z" fill="#9CFA4A" />
    <path d="M25.0776 39.0145V37.3178H23.3711V23.7646H25.0776V22.0781H31.9867V23.7646H33.6931V28.9061H30.1865V25.5436H26.8777V35.5491H30.1865V32.1865H33.6931V37.3281H31.9867V39.0248H25.0776V39.0145ZM23.3815 37.3178H25.088V39.0145H23.3815V37.3178ZM23.4751 22.1295H25.088V23.7543H23.4751V22.1295ZM31.9867 22.1295H33.6931V23.7543H31.9867V22.1295ZM31.9867 37.2766H33.6931V38.9631H31.9867V37.2766Z" fill="#9CFA4A" />
    <path d="M61.8484 39.0145H58.3418V22.0781H66.9574V23.7646H68.6638V30.5926H66.9574V32.279H61.8484V39.0145ZM61.8484 25.5435V28.8136H65.1572V25.5435H61.8484ZM66.9574 22.0781H68.6638V23.7646H66.9574V22.0781ZM66.9574 30.5926H68.6638V32.2379H66.9574V30.5926Z" fill="#9CFA4A" />
    <path d="M76.4892 39.1068H72.9826V25.6256H69.5801V22.1602H79.8917V25.6256H76.4892V39.1068Z" fill="#9CFA4A" />
    <path d="M37.8345 51.9901C37.7825 51.8667 37.6993 51.7227 37.7201 51.6919C37.8449 51.5788 37.6993 51.4965 37.7097 51.3937C37.7201 51.2908 37.7097 51.188 37.8033 51.116C37.8137 51.1057 37.8137 51.0543 37.8033 51.0338C37.6264 50.7664 37.7825 50.5093 37.7929 50.2522C37.8033 50.026 37.7305 49.7998 37.6993 49.553C37.4183 49.553 37.1478 49.553 36.8772 49.553C36.69 49.553 36.6171 49.625 36.6171 49.8203C36.6171 50.3962 36.6171 50.9618 36.6171 51.5376C36.6171 51.6096 36.6171 51.6919 36.6171 51.7639C36.6171 51.9078 36.5339 51.9798 36.3986 51.9901C36.076 52.0004 35.7639 52.0004 35.4413 51.9798C35.3685 51.9798 35.3061 51.8564 35.2436 51.7844C35.2228 51.7536 35.2436 51.6919 35.2436 51.6507C35.2436 49.8203 35.2436 47.9797 35.2436 46.1493C35.2436 46.0464 35.3061 45.9436 35.3269 45.8613C36.6067 45.8613 37.8345 45.8613 39.0624 45.8613C39.0624 46.8485 39.0624 47.8254 39.0624 48.792C38.8959 48.9668 38.6982 49.0388 38.4276 49.008C38.4276 49.0902 38.4276 49.1622 38.4276 49.2342C38.4172 49.3782 38.5109 49.4399 38.6357 49.4604C38.6982 49.4707 38.7606 49.4604 38.8126 49.4604C38.9791 49.481 39.0519 49.5427 39.0624 49.6969C39.0728 49.8203 39.0624 49.9335 39.0624 50.0569C39.0624 50.6019 39.0624 51.1366 39.0624 51.6816C39.0624 51.9284 38.9999 51.9798 38.7398 51.9798C38.4589 51.9901 38.1571 51.9901 37.8345 51.9901ZM37.7201 48.1853C37.7201 47.9077 37.7097 47.6403 37.7201 47.373C37.7201 47.2701 37.6889 47.1776 37.6056 47.157C37.4287 47.1159 37.2518 46.9719 37.0645 47.1159C36.9189 47.2187 36.7524 47.3215 36.5963 47.4244C36.6483 47.702 36.7004 47.9488 36.742 48.1853C37.0749 48.1853 37.3871 48.1853 37.7201 48.1853Z" fill="#9CFA4A" />
    <path d="M98.9023 45.8613C99.9325 45.8613 100.952 45.8613 101.993 45.8613C101.993 46.0156 101.993 46.1595 101.993 46.3035C101.972 47.0028 102.201 47.6917 102.076 48.3807C101.951 49.0491 102.024 49.7072 102.003 50.3756C101.993 50.6019 102.066 50.8281 102.086 51.0646C102.097 51.2908 102.086 51.5171 102.086 51.7741C102.024 51.8153 101.941 51.877 101.795 51.9901C101.379 51.9901 100.879 52.0004 100.38 51.9901C99.8908 51.9695 99.3914 52.0826 98.9023 51.8975C98.9023 49.8923 98.9023 47.8871 98.9023 45.8613ZM100.161 47.0336C100.161 47.4141 100.161 47.7843 100.161 48.1545C100.161 48.3087 100.255 48.3807 100.421 48.3807C100.619 48.391 100.702 48.3293 100.713 48.1339C100.723 47.7637 100.713 47.3935 100.713 47.0336C100.515 47.0336 100.349 47.0336 100.161 47.0336ZM100.713 50.715C100.713 50.3654 100.713 50.026 100.713 49.6867C100.713 49.5324 100.619 49.4604 100.463 49.4604C100.265 49.4502 100.172 49.5221 100.172 49.6969C100.161 50.0363 100.172 50.3756 100.172 50.715C100.359 50.715 100.515 50.715 100.713 50.715Z" fill="#9CFA4A" />
    <path d="M19.4898 45.8613C20.7177 45.8613 21.9455 45.8613 23.1837 45.8613C23.1837 46.6634 23.1837 47.4552 23.1837 48.2676C22.7675 48.2676 22.3513 48.2676 21.9143 48.2676C21.9143 47.8871 21.9143 47.5169 21.9143 47.157C21.5709 46.9308 21.2067 47.0645 20.8633 47.0233C20.8113 47.0747 20.7697 47.1159 20.7281 47.157C20.7281 48.3293 20.7281 49.5016 20.7281 50.715C20.905 50.715 21.0714 50.7253 21.2483 50.7253C21.4252 50.7253 21.6125 50.7253 21.779 50.7253C22.0183 50.3242 21.8518 49.9026 21.9351 49.4604C22.2576 49.4604 22.6114 49.4604 22.9548 49.4604C23.1109 49.4604 23.1941 49.5427 23.1941 49.7072C23.1941 50.3859 23.1941 51.0646 23.1941 51.7433C23.1941 51.9078 23.1109 51.9798 22.9548 51.9901C22.9236 51.9901 22.8924 51.9901 22.8611 51.9901C21.7998 51.9901 20.7281 51.9901 19.6667 51.9901C19.417 51.9901 19.365 51.9284 19.365 51.6713C19.365 49.9849 19.3546 48.2984 19.365 46.612C19.3754 46.3755 19.4482 46.139 19.4898 45.8613Z" fill="#9CFA4A" />
    <path d="M70.861 49.4198C70.6841 49.5535 70.5072 49.5535 70.3095 49.5535C69.6852 49.5432 69.0609 49.5535 68.395 49.5535C68.395 49.8209 68.395 50.0882 68.395 50.3453C68.395 50.7978 68.395 51.2502 68.395 51.7027C68.395 51.9289 68.3326 51.9906 68.1036 51.9906C67.8435 51.9906 67.5834 51.9906 67.3232 51.9906C67.0735 51.9906 67.0215 51.9289 67.0215 51.6718C67.0215 50.6538 67.0215 49.6255 67.0215 48.6075C67.0215 47.7951 67.0215 46.9827 67.0215 46.1703C67.0215 45.9133 67.0735 45.8516 67.3232 45.8516C68.4054 45.8516 69.4771 45.8516 70.5593 45.8516C70.7778 45.8516 70.8506 45.9133 70.8506 46.1395C70.861 47.2398 70.861 48.3298 70.861 49.4198ZM68.5302 48.3812C68.8008 48.3812 69.0713 48.3812 69.3523 48.3812C69.4251 48.3092 69.4979 48.2373 69.5708 48.155C69.6228 47.7745 69.55 47.4043 69.4563 47.0238C69.3731 47.0238 69.2794 47.0238 69.1962 47.0238C68.9985 47.0238 68.8008 47.0238 68.6031 47.0238C68.3534 47.0341 68.3117 47.0855 68.3013 47.3426C68.3013 47.61 68.3013 47.8773 68.3013 48.1447C68.3846 48.227 68.4574 48.3092 68.5302 48.3812Z" fill="#9CFA4A" />
    <path d="M52.641 51.9905C52.5786 51.9185 52.5162 51.8363 52.4121 51.7026C52.3393 51.4147 52.6931 51.0445 52.4225 50.6845C52.6202 50.3144 52.4641 49.9544 52.3913 49.574C52.0375 49.574 51.6629 49.574 51.2571 49.574C51.2467 49.4403 51.2363 49.3272 51.2363 49.2141C51.2363 48.2474 51.2363 47.2911 51.2363 46.3245C51.2363 46.2525 51.2363 46.1702 51.2363 46.0983C51.2467 45.9337 51.3196 45.8515 51.4757 45.8515C51.767 45.8412 52.0583 45.8412 52.3393 45.8515C52.5266 45.8515 52.5994 45.9234 52.5994 46.1188C52.5994 46.7975 52.5994 47.4762 52.5994 48.1755C52.9532 48.1755 53.307 48.1755 53.6816 48.1755C53.6816 47.4145 53.6816 46.6535 53.6816 45.8515C54.0561 45.8515 54.4203 45.8515 54.7741 45.8515C54.9926 45.8515 55.0551 45.9132 55.0551 46.1394C55.0551 46.7461 55.0551 47.3425 55.0551 47.9492C55.0551 48.3811 55.0551 48.8233 55.0551 49.2552C55.0551 49.4814 54.9926 49.5431 54.7741 49.5431C54.5348 49.5431 54.2851 49.5431 54.0457 49.5431C53.8584 49.5431 53.7856 49.6151 53.7856 49.8105C53.7856 50.4275 53.7856 51.0445 53.7856 51.6615C53.7856 51.9185 53.7336 51.9699 53.4735 51.9802C53.2029 51.9905 52.9324 51.9905 52.641 51.9905Z" fill="#9CFA4A" />
    <path d="M82.9109 47.0238C82.9109 46.6845 82.9005 46.376 82.9109 46.0675C82.9109 45.9441 82.9941 45.8516 83.1398 45.8516C83.2751 45.8516 83.4103 45.8516 83.5456 45.8516C84.5965 45.8516 85.6475 45.8516 86.7192 45.8516C86.7712 46.0367 86.74 46.2218 86.74 46.4171C86.7504 46.6125 86.74 46.8079 86.74 47.0033C86.6151 47.0341 86.5007 47.0753 86.3862 47.0753C86.2614 47.0753 86.1261 47.0238 86.0012 47.0341C85.8764 47.0341 85.7099 46.9621 85.6266 47.1061C85.5538 47.2192 85.5122 47.3632 85.4706 47.4969C85.4498 47.5483 85.4706 47.6203 85.4706 47.6717C85.4706 48.5869 85.4706 49.5021 85.4706 50.4173C85.4706 50.5304 85.4185 50.6538 85.533 50.7566C85.5538 50.7772 85.5642 50.8492 85.5434 50.8697C85.4289 51.0137 85.4289 51.1577 85.5434 51.3016C85.5746 51.3428 85.585 51.4456 85.5538 51.4662C85.3977 51.6101 85.5122 51.8055 85.4394 51.9803C85.1272 51.9803 84.8046 51.9803 84.4925 51.9803C84.2427 51.9803 84.1907 51.9186 84.1907 51.6615C84.1907 50.2939 84.1907 48.9262 84.1907 47.5586C84.1907 47.466 84.1907 47.3735 84.1907 47.2912C84.1803 47.0958 84.1179 47.0238 83.9306 47.0238C83.5976 47.0238 83.2647 47.0238 82.9109 47.0238Z" fill="#9CFA4A" />
  </g>
  <defs>
    <filter id="filter0_d_6312_21442" x="-3.81152" y="-13.8115" width="122.623" height="96.623" filterUnits="userSpaceOnUse" color-interpolation-filters="sRGB">
      <feFlood flood-opacity="0" result="BackgroundImageFix" />
      <feColorMatrix in="SourceAlpha" type="matrix" values="0 0 0 0 0 0 0 0 0 0 0 0 0 0 0 0 0 0 127 0" result="hardAlpha" />
      <feOffset />
      <feGaussianBlur stdDeviation="6.90576" />
      <feColorMatrix type="matrix" values="0 0 0 0 0.611765 0 0 0 0 0.980392 0 0 0 0 0.290196 0 0 0 0.2 0" />
      <feBlend mode="normal" in2="BackgroundImageFix" result="effect1_dropShadow_6312_21442" />
      <feBlend mode="normal" in="SourceGraphic" in2="effect1_dropShadow_6312_21442" result="shape" />
    </filter>
  </defs>
</svg>