<svg width="40" height="40" viewBox="0 0 40 40" fill="none" xmlns="http://www.w3.org/2000/svg">
<path id="Vector" d="M20 0C8.94 0 0 8.94 0 20C0 31.06 8.94 40 20 40C31.06 40 40 31.06 40 20C40 8.94 31.06 0 20 0ZM28.6 28.6C28.415 28.7854 28.1952 28.9325 27.9533 29.0329C27.7113 29.1332 27.4519 29.1849 27.19 29.1849C26.9281 29.1849 26.6687 29.1332 26.4268 29.0329C26.1848 28.9325 25.965 28.7854 25.78 28.6L20 22.82L14.22 28.6C13.846 28.974 13.3389 29.184 12.81 29.184C12.2811 29.184 11.774 28.974 11.4 28.6C11.026 28.226 10.816 27.7189 10.816 27.19C10.816 26.9281 10.8675 26.6688 10.9677 26.4269C11.068 26.185 11.2148 25.9652 11.4 25.78L17.18 20L11.4 14.22C11.026 13.846 10.816 13.3389 10.816 12.81C10.816 12.2811 11.026 11.774 11.4 11.4C11.774 11.026 12.2811 10.816 12.81 10.816C13.3389 10.816 13.846 11.026 14.22 11.4L20 17.18L25.78 11.4C25.9652 11.2148 26.185 11.068 26.4269 10.9677C26.6688 10.8675 26.9281 10.816 27.19 10.816C27.4519 10.816 27.7112 10.8675 27.9531 10.9677C28.195 11.068 28.4148 11.2148 28.6 11.4C28.7852 11.5852 28.932 11.805 29.0323 12.0469C29.1325 12.2888 29.184 12.5481 29.184 12.81C29.184 13.0719 29.1325 13.3312 29.0323 13.5731C28.932 13.815 28.7852 14.0348 28.6 14.22L22.82 20L28.6 25.78C29.36 26.54 29.36 27.82 28.6 28.6Z" fill="#9CFA4A"/>
</svg>
