<svg width="40" height="40" viewBox="0 0 40 40" fill="none" xmlns="http://www.w3.org/2000/svg">
<path d="M20.0334 33.8383C16.1501 33.8383 12.2668 33.2395 8.58344 32.0421C7.18344 31.5728 6.11677 30.618 5.65011 29.372C5.16677 28.126 5.33344 26.7505 6.10011 25.5207L8.01677 22.4299C8.41677 21.7826 8.78344 20.488 8.78344 19.7275V15.0509C8.78344 9.03111 13.8334 4.12793 20.0334 4.12793C26.2334 4.12793 31.2834 9.03111 31.2834 15.0509V19.7275C31.2834 20.4719 31.6501 21.7826 32.0501 22.4461L33.9501 25.5207C34.6668 26.6858 34.8001 28.0936 34.3168 29.372C33.8334 30.6504 32.7834 31.6213 31.4668 32.0421C27.8001 33.2395 23.9168 33.8383 20.0334 33.8383ZM20.0334 6.55525C15.2168 6.55525 11.2834 10.358 11.2834 15.0509V19.7275C11.2834 20.9088 10.7834 22.6564 10.1668 23.6759L8.25011 26.7667C7.88344 27.3654 7.78344 27.9965 8.00011 28.5305C8.20011 29.0807 8.70011 29.5015 9.38344 29.728C16.3501 31.9935 23.7334 31.9935 30.7001 29.728C31.3001 29.5338 31.7668 29.0969 31.9834 28.5144C32.2001 27.9318 32.1501 27.3007 31.8168 26.7667L29.9001 23.6759C29.2668 22.6241 28.7834 20.8926 28.7834 19.7113V15.0509C28.7834 10.358 24.8668 6.55525 20.0334 6.55525Z" fill="#9CFA4A"/>
<path d="M23.1337 6.99165C23.017 6.99165 22.9004 6.97547 22.7837 6.94311C22.3004 6.81365 21.8337 6.71656 21.3837 6.65183C19.967 6.47382 18.6004 6.57092 17.317 6.94311C16.8504 7.08874 16.3504 6.94311 16.0337 6.60328C15.717 6.26346 15.617 5.77799 15.8004 5.34108C16.4837 3.64196 18.1504 2.52539 20.0504 2.52539C21.9504 2.52539 23.617 3.62577 24.3004 5.34108C24.467 5.77799 24.3837 6.26346 24.067 6.60328C23.817 6.8622 23.467 6.99165 23.1337 6.99165Z" fill="#9CFA4A"/>
<path d="M20.0332 37.5273C18.3832 37.5273 16.7832 36.88 15.6165 35.7472C14.4499 34.6145 13.7832 33.061 13.7832 31.459H16.2832C16.2832 32.4137 16.6832 33.3523 17.3832 34.0319C18.0832 34.7116 19.0499 35.1 20.0332 35.1C22.0999 35.1 23.7832 33.4656 23.7832 31.459H26.2832C26.2832 34.8087 23.4832 37.5273 20.0332 37.5273Z" fill="#9CFA4A"/>
<circle cx="28.5" cy="13.1162" r="7.5" fill="#F91616"/>
<path d="M28.309 16.6702C27.853 16.6702 27.421 16.5982 27.013 16.4542C26.611 16.3042 26.287 16.1062 26.041 15.8602L26.356 15.3472C26.56 15.5572 26.833 15.7312 27.175 15.8692C27.523 16.0072 27.901 16.0762 28.309 16.0762C28.831 16.0762 29.23 15.9622 29.506 15.7342C29.788 15.5062 29.929 15.2002 29.929 14.8162C29.929 14.4322 29.791 14.1262 29.515 13.8982C29.245 13.6702 28.816 13.5562 28.228 13.5562H27.778V13.0792L29.722 10.6402L29.812 10.8922H26.302V10.3162H30.352V10.7752L28.408 13.2142L28.093 13.0072H28.336C29.092 13.0072 29.656 13.1752 30.028 13.5112C30.406 13.8472 30.595 14.2792 30.595 14.8072C30.595 15.1612 30.511 15.4792 30.343 15.7612C30.175 16.0432 29.92 16.2652 29.578 16.4272C29.242 16.5892 28.819 16.6702 28.309 16.6702Z" fill="white"/>
</svg>
