<svg width="176" height="40" viewBox="0 0 176 40" fill="none" xmlns="http://www.w3.org/2000/svg">
<rect x="0.5" y="0.5" width="175" height="39" rx="7.5" stroke="#9CFA4A"/>
<path d="M158.906 24.8996L156.306 22.2996C155.989 21.9829 155.918 21.6206 156.094 21.2126C156.269 20.8046 156.581 20.6003 157.031 20.5996H162.181C162.631 20.5996 162.943 20.8039 163.119 21.2126C163.294 21.6213 163.223 21.9836 162.906 22.2996L160.306 24.8996C160.206 24.9996 160.097 25.0746 159.981 25.1246C159.864 25.1746 159.739 25.1996 159.606 25.1996C159.472 25.1996 159.347 25.1746 159.231 25.1246C159.114 25.0746 159.006 24.9996 158.906 24.8996Z" fill="#B3B3B3"/>
<path d="M157.032 18.6C156.582 18.6 156.269 18.3957 156.094 17.987C155.918 17.5783 155.989 17.216 156.307 16.9L158.907 14.3C159.007 14.2 159.115 14.125 159.232 14.075C159.348 14.025 159.473 14 159.607 14C159.74 14 159.865 14.025 159.982 14.075C160.098 14.125 160.207 14.2 160.307 14.3L162.907 16.9C163.223 17.2167 163.294 17.5793 163.119 17.988C162.943 18.3967 162.631 18.6007 162.182 18.6H157.032Z" fill="#B3B3B3"/>
</svg>
